<svg height="100%" viewBox="0 0 600 600" fill="none" xmlns="http://www.w3.org/2000/svg">
<g clip-path="url(#clip0_303_61)">
<rect width="1028.57" height="600" fill="#3E1982"/>
<g filter="url(#filter0_f_303_61)">
<path d="M427.145 289.331C171.742 241.533 19.4456 409.484 -24.7771 499.434C-191.144 378.059 -521.17 123.568 -510.342 76.6051C-496.807 17.9015 -155.051 -525.642 458.754 -416.095C1072.56 -306.548 746.399 349.078 427.145 289.331Z" fill="#632D61"/>
</g>
<g filter="url(#filter1_f_303_61)">
<path d="M823.037 390.194C415.161 -95.1416 -103.653 202.465 -203 191.422L84.0033 -316C462.627 -308.638 1252.99 -256.368 1385.45 -106.185C1551.03 81.5448 1230.91 875.53 823.037 390.194Z" fill="#8C397D"/>
</g>
<g filter="url(#filter2_f_303_61)">
<path d="M1172 528.298C660.4 280.298 339.5 631.632 243 838.298V897.799L1482 1037.8C1591.83 971.299 1683.6 776.298 1172 528.298Z" fill="#FFDE90"/>
</g>
<g filter="url(#filter3_f_303_61)">
<path d="M775.5 955.314C541.9 688.514 305.833 844.147 217 955.314C263.8 1168.91 692.5 1338.98 901 1397.31C956.5 1361.15 1009.1 1222.11 775.5 955.314Z" fill="#E2A71D"/>
</g>
</g>
<defs>
<filter id="filter0_f_303_61" x="-675.603" y="-595.634" width="1645.58" height="1260.07" filterUnits="userSpaceOnUse" color-interpolation-filters="sRGB">
<feFlood flood-opacity="0" result="BackgroundImageFix"/>
<feBlend mode="normal" in="SourceGraphic" in2="BackgroundImageFix" result="shape"/>
<feGaussianBlur stdDeviation="82.5" result="effect1_foregroundBlur_303_61"/>
</filter>
<filter id="filter1_f_303_61" x="-441" y="-554" width="2109" height="1337" filterUnits="userSpaceOnUse" color-interpolation-filters="sRGB">
<feFlood flood-opacity="0" result="BackgroundImageFix"/>
<feBlend mode="normal" in="SourceGraphic" in2="BackgroundImageFix" result="shape"/>
<feGaussianBlur stdDeviation="119" result="effect1_foregroundBlur_303_61"/>
</filter>
<filter id="filter2_f_303_61" x="25" y="225" width="1760.68" height="1030.8" filterUnits="userSpaceOnUse" color-interpolation-filters="sRGB">
<feFlood flood-opacity="0" result="BackgroundImageFix"/>
<feBlend mode="normal" in="SourceGraphic" in2="BackgroundImageFix" result="shape"/>
<feGaussianBlur stdDeviation="109" result="effect1_foregroundBlur_303_61"/>
</filter>
<filter id="filter3_f_303_61" x="-74" y="517" width="1313.46" height="1171.31" filterUnits="userSpaceOnUse" color-interpolation-filters="sRGB">
<feFlood flood-opacity="0" result="BackgroundImageFix"/>
<feBlend mode="normal" in="SourceGraphic" in2="BackgroundImageFix" result="shape"/>
<feGaussianBlur stdDeviation="145.5" result="effect1_foregroundBlur_303_61"/>
</filter>
<clipPath id="clip0_303_61">
<rect width="1028.57" height="600" fill="white"/>
</clipPath>
</defs>
</svg>
