<svg width="1080" height="1080" viewBox="0 0 1080 1080" fill="none" xmlns="http://www.w3.org/2000/svg">
<g clip-path="url(#clip0_303_67)">
<rect width="1080" height="1080" fill="#551D68"/>
<g filter="url(#filter0_f_303_67)">
<path d="M686.617 814.996C294.617 547.396 21.9507 774.496 -65.3827 921.496C-589.383 1668.5 1312.62 1130.5 1147.62 984.496C982.617 838.496 1176.62 1149.5 686.617 814.996Z" fill="#AC3D82"/>
</g>
<g filter="url(#filter1_f_303_67)">
<path d="M353.194 290.36C235.027 335.693 85.0936 447.66 430.694 532.86C862.694 639.36 2342.69 -369.14 353.194 290.36Z" fill="#DBA83D"/>
</g>
<g filter="url(#filter2_f_303_67)">
<path d="M1190.75 -196.587C1310.32 -1.10229 1360.28 370.375 603.533 292.405C-342.398 194.943 318.746 -1550.14 1190.75 -196.587Z" fill="#DEAD46"/>
</g>
</g>
<defs>
<filter id="filter0_f_303_67" x="-490" y="358" width="1980.8" height="1283.62" filterUnits="userSpaceOnUse" color-interpolation-filters="sRGB">
<feFlood flood-opacity="0" result="BackgroundImageFix"/>
<feBlend mode="normal" in="SourceGraphic" in2="BackgroundImageFix" result="shape"/>
<feGaussianBlur stdDeviation="166.5" result="effect1_foregroundBlur_303_67"/>
</filter>
<filter id="filter1_f_303_67" x="17" y="-135" width="1549.13" height="875.823" filterUnits="userSpaceOnUse" color-interpolation-filters="sRGB">
<feFlood flood-opacity="0" result="BackgroundImageFix"/>
<feBlend mode="normal" in="SourceGraphic" in2="BackgroundImageFix" result="shape"/>
<feGaussianBlur stdDeviation="100" result="effect1_foregroundBlur_303_67"/>
</filter>
<filter id="filter2_f_303_67" x="-117" y="-967" width="1635" height="1528" filterUnits="userSpaceOnUse" color-interpolation-filters="sRGB">
<feFlood flood-opacity="0" result="BackgroundImageFix"/>
<feBlend mode="normal" in="SourceGraphic" in2="BackgroundImageFix" result="shape"/>
<feGaussianBlur stdDeviation="129" result="effect1_foregroundBlur_303_67"/>
</filter>
<clipPath id="clip0_303_67">
<rect width="1080" height="1080" fill="white"/>
</clipPath>
</defs>
</svg>
